<svg xmlns="http://www.w3.org/2000/svg" width="128" height="128" fill="none"><path fill="#219EBC" d="M37.99 61.688c0 20.434-16.56 37-36.99 37 0-20.435 16.561-37 36.99-37"/><path fill="#219EBC" d="M37.99 66.313c0-20.435-16.56-37-36.99-37 0 20.434 16.561 37 36.99 37"/><path fill="#219EBC" fill-rule="evenodd" d="M90.01 101C110.438 101 127 84.435 127 64s-16.561-37-36.99-37c-30.634 0-55.487 37-55.487 37s24.853 37 55.486 37m3.34-18.5c10.215 0 18.496-8.283 18.496-18.5s-8.281-18.5-18.495-18.5S74.855 53.783 74.855 64s8.28 18.5 18.496 18.5" clip-rule="evenodd"/></svg>