<svg xmlns="http://www.w3.org/2000/svg" width="128" height="80" fill="none"><path fill="#219EBC" d="M37.99 37.688c0 20.434-16.56 37-36.99 37 0-20.435 16.561-37 36.99-37"/><path fill="#219EBC" d="M37.99 42.313c0-20.435-16.56-37-36.99-37 0 20.434 16.561 37 36.99 37"/><path fill="#219EBC" fill-rule="evenodd" d="M90.01 77C110.438 77 127 60.435 127 40S110.439 3 90.01 3C59.375 3 34.522 40 34.522 40s24.853 37 55.486 37m3.34-18.5c10.215 0 18.496-8.283 18.496-18.5s-8.281-18.5-18.495-18.5S74.855 29.783 74.855 40s8.28 18.5 18.496 18.5" clip-rule="evenodd"/></svg>