<svg width="132" height="13" viewBox="0 0 132 13" fill="none" xmlns="http://www.w3.org/2000/svg">
<path d="M1.05972 12.7411C0.753151 12.7411 0.674316 12.5922 0.674316 12.3732V1.96737C0.674316 1.74839 0.761909 1.59949 1.0422 1.59949H4.70351C8.59256 1.59949 9.63489 4.18343 9.63489 7.13525C9.63489 10.0871 8.64511 12.7411 4.70351 12.7411H1.05972ZM4.51957 3.83306H3.32833V10.5163H4.4057C5.91227 10.5163 6.87577 9.64036 6.87577 7.25788C6.87577 4.8754 6.14001 3.83306 4.52833 3.83306" fill="#023047"/>
<path d="M13.743 9.20241C13.8131 10.49 14.435 10.7615 15.5561 10.7615C16.0729 10.7615 16.8437 10.6739 17.5357 10.5951C17.9737 10.5426 18.0262 10.5426 18.105 10.963L18.2364 11.7513C18.3065 12.1367 18.3065 12.3031 17.7985 12.5046C17.124 12.7411 15.8977 12.89 15.1007 12.89C11.7284 12.89 11.124 10.8754 11.124 8.65934C11.124 7.04766 11.4306 4.2973 14.9518 4.2973C18.1576 4.2973 18.7445 6.32942 18.762 8.12504C18.762 8.81701 18.5605 9.20241 17.8423 9.20241H13.743ZM13.778 7.68708H16.108C16.108 6.88124 15.8189 6.25934 14.9518 6.25934C14.1634 6.25934 13.8306 6.75861 13.778 7.68708Z" fill="#023047"/>
<path d="M23.0626 12.89C22.2567 12.89 21.1005 12.7411 20.4261 12.5221C19.8743 12.3207 19.7516 12.1542 19.8567 11.7163L20.0407 10.9104C20.1107 10.5951 20.2071 10.5601 20.575 10.6301C21.3458 10.7615 22.4056 10.8491 22.975 10.8491C23.8334 10.8491 24.1487 10.6652 24.1487 10.2272C24.1487 9.73671 23.9122 9.62284 23.2115 9.53525C21.3983 9.28124 19.9093 8.94839 19.9093 6.98635C19.9093 5.20825 21.3545 4.2973 23.3341 4.2973C24.0874 4.2973 25.2348 4.41117 25.9356 4.66519C26.391 4.81409 26.61 4.93672 26.5049 5.3484L26.321 6.20679C26.2334 6.52212 26.1896 6.55715 25.8129 6.51336C25.0597 6.41701 23.9472 6.3119 23.4305 6.3119C22.5721 6.29438 22.4757 6.53088 22.4757 6.88124C22.4757 7.30168 22.9137 7.37175 23.518 7.4681C25.2436 7.68708 26.7764 8.01993 26.7764 10.1221C26.7764 12.2243 24.9808 12.89 23.0713 12.89" fill="#023047"/>
<path d="M33.9588 11.9878C34.0289 12.2418 33.8713 12.4608 33.6523 12.5221C32.8464 12.7937 31.7428 12.8725 31.1997 12.8725C29.0888 12.8725 28.7209 11.5762 28.7209 10.201V6.46083H27.9851C27.7136 6.46083 27.6348 6.34696 27.6348 6.09295V4.83164C27.6348 4.57762 27.7224 4.46375 27.9851 4.46375H28.7384V2.81704C28.7384 2.54551 28.8873 2.44916 29.1063 2.37908L30.8056 1.92361C31.0421 1.83602 31.226 1.94113 31.226 2.21266V4.46375H32.934C33.2406 4.46375 33.2844 4.58638 33.2844 4.81412V6.09295C33.2844 6.34696 33.2318 6.46083 32.934 6.46083H31.2085L31.226 9.57908C31.226 10.2185 31.2786 10.4637 32.2508 10.4813C32.5224 10.4813 32.9866 10.4462 33.407 10.4112C33.626 10.4112 33.7574 10.3762 33.8099 10.7616L33.9588 11.9703V11.9878Z" fill="#023047"/>
<path d="M36.2537 3.52647C35.08 3.52647 34.9136 2.86954 34.9136 2.26516C34.9136 1.57319 35.1851 1.02136 36.2537 1.02136C37.3223 1.02136 37.5763 1.53815 37.5763 2.26516C37.5763 2.90457 37.3749 3.52647 36.2537 3.52647ZM37.4975 12.3732C37.4975 12.5396 37.445 12.7411 37.1647 12.7411H35.3165C35.0362 12.7411 34.9486 12.5922 34.9486 12.3732V4.82282C34.9486 4.58632 35.0362 4.45494 35.3165 4.45494H37.1647C37.4537 4.45494 37.4975 4.67391 37.4975 4.82282V12.3732Z" fill="#023047"/>
<path d="M46.6157 12.7411H44.7676C44.496 12.7411 44.3997 12.6097 44.3997 12.3907C44.3997 10.9104 44.4172 9.45642 44.4172 7.99365C44.4172 7.07394 44.1106 6.70606 43.3924 6.70606C42.8581 6.70606 42.1486 7.05642 41.7457 7.19657V12.3995C41.7457 12.5659 41.6931 12.7498 41.3953 12.7498H39.5647C39.2756 12.7498 39.1968 12.6185 39.1968 12.3995V4.84912C39.1968 4.63015 39.2844 4.48124 39.5647 4.48124H41.3953C41.7019 4.48124 41.7457 4.6827 41.7457 4.84912V5.25204C41.7457 5.25204 41.7807 5.26956 41.7982 5.26956C42.534 4.71774 43.6289 4.33234 44.4347 4.33234C46.8172 4.33234 46.9661 6.0754 46.9661 7.64328V12.4082C46.9661 12.5747 46.9136 12.7586 46.6157 12.7586" fill="#023047"/>
<path d="M53.6145 11.7338C52.7386 12.5571 51.451 12.8725 50.6101 12.8725C48.6481 12.8725 48.2627 11.6812 48.2627 10.4024C48.2276 8.33526 49.5065 7.61701 51.486 7.61701H53.413V7.34548C53.413 6.63599 53.1765 6.3557 51.9327 6.3557C51.4422 6.3557 50.3911 6.44329 49.7342 6.5046C49.2612 6.55716 49.1824 6.55716 49.0948 6.21555L48.9108 5.33964C48.8583 5.05059 48.9284 4.88416 49.4451 4.6827C50.1984 4.39365 51.5561 4.27979 52.3357 4.27979C55.4889 4.27979 55.9269 5.45351 55.9269 7.45058V10.1046C55.9269 10.8053 56.0232 10.8404 56.5488 10.9104C56.8378 10.928 56.8992 10.998 56.8992 11.1995V12.2769C56.8992 12.5309 56.7327 12.6447 56.4086 12.7148C56.0758 12.8024 55.7167 12.8287 55.3663 12.8287C54.543 12.8287 53.8597 12.6272 53.6408 11.7338L53.6057 11.7163L53.6145 11.7338ZM53.3605 9.2462H51.8451C51.2232 9.2462 50.8378 9.4827 50.8378 10.271C50.8378 10.7878 51.0218 10.963 51.5911 10.963C52.1079 10.963 52.8787 10.6564 53.3517 10.3761V9.25496L53.3605 9.2462Z" fill="#023047"/>
<path d="M63.7838 11.9878C63.8539 12.2418 63.6962 12.4608 63.4772 12.5221C62.6714 12.7937 61.5677 12.8725 61.0247 12.8725C58.9137 12.8725 58.5458 11.5762 58.5458 10.201V6.46083H57.8101C57.5386 6.46083 57.4597 6.34696 57.4597 6.09295V4.83164C57.4597 4.57762 57.5473 4.46375 57.8101 4.46375H58.5634V2.81704C58.5634 2.54551 58.7123 2.44916 58.9312 2.37908L60.6218 1.92361C60.8583 1.83602 61.0422 1.94113 61.0422 2.21266V4.46375H62.7502C63.0568 4.46375 63.1006 4.58638 63.1006 4.81412V6.09295C63.1006 6.34696 63.048 6.46083 62.7502 6.46083H61.0247L61.0422 9.57908C61.0422 10.2185 61.0948 10.4637 62.067 10.4813C62.3385 10.4813 62.8028 10.4462 63.2232 10.4112C63.4422 10.4112 63.5736 10.3762 63.6261 10.7616L63.775 11.9703L63.7838 11.9878Z" fill="#023047"/>
<path d="M66.0875 3.52647C64.9137 3.52647 64.7473 2.86954 64.7473 2.26516C64.7473 1.57319 65.0188 1.02136 66.0875 1.02136C67.1561 1.02136 67.4101 1.53815 67.4101 2.26516C67.4101 2.90457 67.2086 3.52647 66.0875 3.52647ZM67.3313 12.3732C67.3313 12.5396 67.2787 12.7411 66.9984 12.7411H65.1502C64.8699 12.7411 64.7824 12.5922 64.7824 12.3732V4.82282C64.7824 4.58632 64.8699 4.45494 65.1502 4.45494H66.9984C67.2875 4.45494 67.3313 4.67391 67.3313 4.82282V12.3732Z" fill="#023047"/>
<path d="M72.7793 12.8725C69.1706 12.8725 68.9341 10.3061 68.9341 8.4754C68.9341 6.95131 69.337 4.2973 72.7793 4.2973C76.2217 4.2973 76.756 6.53088 76.756 8.4754C76.756 10.3061 76.4669 12.8725 72.7793 12.8725ZM72.8144 6.47832C71.7896 6.47832 71.518 7.21409 71.518 8.58051C71.518 10.0433 71.772 10.6915 72.7793 10.6915C73.9005 10.6915 74.137 9.99949 74.137 8.58051C74.137 7.16153 73.9355 6.47832 72.8144 6.47832Z" fill="#023047"/>
<path d="M85.4888 12.7411H83.6406C83.3691 12.7411 83.2727 12.6097 83.2727 12.3907C83.2727 10.9104 83.2902 9.45642 83.2902 7.99365C83.2902 7.07394 82.9837 6.70606 82.2654 6.70606C81.7311 6.70606 81.0216 7.05642 80.6187 7.19657V12.3995C80.6187 12.5659 80.5662 12.7498 80.2684 12.7498H78.4377C78.1487 12.7498 78.0698 12.6185 78.0698 12.3995V4.84912C78.0698 4.63015 78.1574 4.48124 78.4377 4.48124H80.2684C80.5749 4.48124 80.6187 4.6827 80.6187 4.84912V5.25204C80.6187 5.25204 80.6538 5.26956 80.6713 5.26956C81.407 4.71774 82.5019 4.33234 83.3078 4.33234C85.6903 4.33234 85.8392 6.0754 85.8392 7.64328V12.4082C85.8392 12.5747 85.7866 12.7586 85.4888 12.7586" fill="#023047"/>
<path d="M92.3823 1.96737C92.3823 1.74839 92.4699 1.58197 92.7502 1.58197H99.4159C99.6349 1.58197 99.7663 1.73087 99.7663 1.94985V3.47394C99.7663 3.6754 99.6787 3.8243 99.3984 3.8243H95.0539V5.85642H98.8465C99.083 5.85642 99.2319 5.9878 99.2319 6.20678V7.73087C99.2319 7.93233 99.1531 8.08123 98.8465 8.08123H95.0539V10.4987H99.486C99.7225 10.4987 99.8538 10.6477 99.8538 10.8666V12.3907C99.8538 12.5922 99.7663 12.7236 99.486 12.7236H92.759C92.4699 12.7236 92.3911 12.5747 92.3911 12.3732V1.96737H92.3823Z" fill="#023047"/>
<path d="M106.449 11.7338C105.573 12.5571 104.286 12.8725 103.445 12.8725C101.483 12.8725 101.097 11.6812 101.097 10.4024C101.062 8.33526 102.341 7.61701 104.321 7.61701H106.248V7.34548C106.248 6.63599 106.011 6.3557 104.767 6.3557C104.277 6.3557 103.226 6.44329 102.569 6.5046C102.096 6.55716 102.017 6.55716 101.929 6.21555L101.746 5.33964C101.693 5.05059 101.763 4.88416 102.28 4.6827C103.033 4.39365 104.391 4.27979 105.17 4.27979C108.324 4.27979 108.762 5.45351 108.762 7.45058V10.1046C108.762 10.8053 108.858 10.8404 109.384 10.9104C109.673 10.928 109.734 10.998 109.734 11.1995V12.2769C109.734 12.5309 109.567 12.6447 109.243 12.7148C108.911 12.8024 108.551 12.8287 108.201 12.8287C107.378 12.8287 106.694 12.6272 106.475 11.7338L106.44 11.7163L106.449 11.7338ZM106.195 9.2462H104.68C104.058 9.2462 103.673 9.4827 103.673 10.271C103.673 10.7878 103.857 10.963 104.426 10.963C104.943 10.963 105.713 10.6564 106.186 10.3761V9.25496L106.195 9.2462Z" fill="#023047"/>
<path d="M113.518 5.61994L113.553 5.65497C114.157 5.03308 115.279 4.48125 115.988 4.36738C116.339 4.31483 116.487 4.33235 116.54 4.75278L116.741 6.3995C116.776 6.69731 116.776 6.80242 116.268 6.89877C115.279 7.08271 114.324 7.33672 113.518 7.61701V12.3645C113.518 12.5309 113.466 12.7323 113.168 12.7323H111.32C111.03 12.7323 110.952 12.5834 110.952 12.3645V4.8141C110.952 4.59512 111.039 4.44621 111.32 4.44621H113.15C113.466 4.44621 113.518 4.66519 113.518 4.8141V5.61994Z" fill="#023047"/>
<path d="M123.355 11.9878C123.425 12.2418 123.267 12.4608 123.048 12.5221C122.242 12.7937 121.139 12.8725 120.595 12.8725C118.485 12.8725 118.117 11.5762 118.117 10.201V6.46083H117.381C117.109 6.46083 117.031 6.34696 117.031 6.09295V4.83164C117.031 4.57762 117.118 4.46375 117.381 4.46375H118.134V2.81704C118.134 2.54551 118.283 2.44916 118.502 2.37908L120.193 1.92361C120.429 1.83602 120.613 1.94113 120.613 2.21266V4.46375H122.321C122.628 4.46375 122.671 4.58638 122.671 4.81412V6.09295C122.671 6.34696 122.619 6.46083 122.321 6.46083H120.595L120.613 9.57908C120.613 10.2185 120.666 10.4637 121.638 10.4813C121.909 10.4813 122.374 10.4462 122.794 10.4112C123.013 10.4112 123.144 10.3762 123.197 10.7616L123.346 11.9703L123.355 11.9878Z" fill="#023047"/>
<path d="M131.895 12.3732C131.895 12.5396 131.842 12.7411 131.544 12.7411H129.696C129.425 12.7411 129.328 12.5922 129.328 12.3732C129.328 11.655 129.346 8.58052 129.346 7.86227C129.346 6.96008 129.03 6.60096 128.321 6.60096C127.813 6.60096 127.06 6.91629 126.674 7.09147V12.382C126.674 12.5484 126.622 12.7499 126.324 12.7499H124.476C124.204 12.7499 124.125 12.601 124.125 12.382V1.2579C124.125 1.03892 124.213 0.890015 124.476 0.890015H126.341C126.639 0.890015 126.692 1.09147 126.692 1.2579V5.05059C127.384 4.66519 128.356 4.29731 129.188 4.29731C131.702 4.29731 131.895 6.04037 131.895 7.5995V12.3645V12.3732Z" fill="#023047"/>
</svg>
