<svg width="71" height="13" viewBox="0 0 71 13" fill="none" xmlns="http://www.w3.org/2000/svg">
<path d="M32.8433 1.63562C32.0656 1.63562 31.3662 1.7731 30.7453 2.04808C30.1241 2.32322 29.6002 2.70235 29.1735 3.18595C28.7469 3.66957 28.4196 4.23631 28.1921 4.88575C27.9645 5.53535 27.8508 6.23953 27.8508 6.998C27.8508 7.73777 27.9645 8.42743 28.1921 9.06752C28.4196 9.70749 28.7469 10.2647 29.1735 10.7388C29.6002 11.2131 30.1241 11.5851 30.7453 11.8554C31.3662 12.1255 32.0656 12.2609 32.8433 12.2609C33.4691 12.2609 34.0428 12.166 34.5646 11.9764C35.0858 11.7868 35.5407 11.5118 35.9297 11.1513C36.3185 10.7911 36.6315 10.3546 36.8688 9.84269C37.1055 9.33056 37.2526 8.75701 37.3095 8.12163H35.1475C35.0622 8.80441 34.8275 9.35452 34.4436 9.77168C34.0594 10.1891 33.526 10.3976 32.8433 10.3976C32.3405 10.3976 31.914 10.3003 31.5632 10.1059C31.2122 9.91166 30.9278 9.6532 30.7098 9.33073C30.4915 9.00852 30.3327 8.64582 30.2331 8.24261C30.1335 7.83961 30.0839 7.42475 30.0839 6.998C30.0839 6.55256 30.1335 6.12104 30.2331 5.70365C30.3327 5.28649 30.4915 4.91417 30.7098 4.58704C30.9278 4.25991 31.2122 3.99917 31.5632 3.80464C31.914 3.61046 32.3405 3.51315 32.8433 3.51315C33.1183 3.51315 33.3813 3.55819 33.6327 3.64816C33.8838 3.73848 34.1092 3.86415 34.3084 4.02533C34.5075 4.18664 34.6734 4.37358 34.8063 4.58704C34.939 4.80033 35.0242 5.03522 35.0621 5.29119H37.2241C37.1577 4.70338 36.9966 4.18166 36.7406 3.7264C36.4846 3.27124 36.1597 2.88976 35.7662 2.58151C35.3726 2.27348 34.927 2.03886 34.4291 1.87757C33.9313 1.71643 33.4028 1.63562 32.8433 1.63562ZM19.8015 1.87757V12.0332H27.5109V10.1557H22.0347V7.66644H26.9562V5.93114H22.0347V3.75489H27.3969V1.87757H19.8015ZM38.1997 1.87757V12.0332H40.2909V4.90701H40.3192L42.8082 12.0332H44.5295L47.0187 4.836H47.0472V12.0332H49.138V1.87757H45.9946L43.7473 8.8613H43.7188L41.3433 1.87757H38.1997ZM49.5959 1.87757L52.2841 12.0332H54.5459L56.2384 5.12047H56.2669L57.988 12.0332H60.2067L62.9377 1.87757H60.7474L59.0831 8.87554H59.0546L57.3193 1.87757H55.2285L53.4647 8.79007H53.4363L51.8289 1.87757H49.5959ZM63.3957 1.87757V12.0332H65.6289V7.83717H69.8817V6.10186H65.6289V3.75489H70.5359V1.87757H63.3957Z" fill="#023047"/>
<path d="M6.70869 0.890025C3.87857 0.890025 1.41104 2.91748 0.905774 5.72004L4.54796 5.72705C4.94822 4.82004 5.86927 4.23497 6.85815 4.23497C7.92034 4.23497 8.90843 4.95525 9.26572 5.94923C9.60828 4.932 10.5961 4.23497 11.6729 4.23497C12.6838 4.23497 13.6211 4.82008 14.0213 5.73407L17.4839 5.74299C16.9717 2.95443 14.5041 0.890015 11.6729 0.890015C10.8485 0.890015 9.97199 1.09794 9.22873 1.42536C8.44802 1.05344 7.58634 0.890025 6.70869 0.890025ZM0.854323 6.21435C0.772512 6.66774 0.779768 7.12828 0.854323 7.56739H5.84805V6.21435H0.854323ZM9.26572 7.82911C8.90843 8.82466 7.92034 9.54676 6.85815 9.54676C5.86927 9.54676 4.94822 8.96022 4.54796 8.05298L0.905774 8.06021C1.41104 10.8611 3.87857 12.89 6.70869 12.89C7.58634 12.89 8.44802 12.7267 9.22873 12.3621C9.97199 12.6822 10.8485 12.89 11.6729 12.89C14.5041 12.89 16.9717 10.8237 17.4839 8.03704L14.0213 8.04596C13.6211 8.96017 12.6838 9.54676 11.6729 9.54676C10.5961 9.54676 9.60828 8.84819 9.26572 7.82911Z" fill="#023047"/>
</svg>
