<svg width="45" height="17" viewBox="0 0 45 17" fill="none" xmlns="http://www.w3.org/2000/svg">
<path d="M32.5103 8.13236C31.8235 8.00536 30.9223 7.93847 30.6293 7.52238C30.189 6.89745 30.739 5.98813 32.1794 6.07308C33.4834 6.14994 33.6612 7.15625 33.6791 7.5476H35.5601C35.5858 6.81062 35.2806 6.04796 34.8227 5.56499C34.2388 4.95511 32.8658 4.31898 31.1634 4.57401C30.2477 4.70064 29.0277 5.23422 28.6206 6.42953C28.2646 7.5476 28.6206 8.56416 29.3069 9.09831C30.1714 9.75946 31.7937 9.95749 32.4592 10.0903C33.2638 10.251 33.8613 10.3586 33.762 11.2145C33.6576 12.1141 32.2632 12.3701 31.3407 12.0724C30.683 11.8601 30.3999 11.3349 30.2729 10.6235H28.2908C28.2908 11.5251 28.8272 12.4764 29.3702 12.9131C30.1756 13.5608 31.0908 13.7887 32.1483 13.7887C33.5372 13.7887 34.6865 13.4306 35.3825 12.4028C35.7474 11.8639 36.1451 10.6235 35.5091 9.50537C34.9503 8.53914 33.6791 8.33565 32.5103 8.13236Z" fill="#023047"/>
<path d="M25.9513 5.76844C25.1438 4.84567 23.7301 4.31914 22.2913 4.54792C19.5918 4.97718 18.9309 7.53515 18.8087 8.3614C18.58 9.90816 19.0377 12.5046 21.7577 13.5217C23.0278 14.0042 24.6298 13.8265 25.8498 12.937C26.5361 12.4279 27.2224 11.2847 27.2731 10.5723H25.0108C24.935 10.8776 24.7568 11.2847 24.3501 11.5895C23.4345 12.2502 22.3928 11.8184 21.9349 11.4876C21.2486 10.9795 20.9946 10.1409 20.9946 8.94579C20.9946 7.29093 21.7553 6.31087 23.069 6.31087C24.2579 6.31087 24.9929 7.33374 24.935 8.18313H21.7316V9.78465H27.2731C27.4084 8.27702 26.7078 6.63307 25.9513 5.76844Z" fill="#023047"/>
<path d="M42.432 10.9977C42.2474 11.5287 41.7491 11.9185 40.8054 12.0424C39.5605 12.206 38.7099 11.4331 39.2482 10.4379C39.7888 9.43857 41.7796 9.79285 42.5339 9.06547C42.5339 9.26867 42.5668 10.6097 42.432 10.9977ZM44.7202 11.328V8.5824C44.7202 8.16603 44.6699 7.16433 44.5425 6.498C44.4507 6.01823 44.0371 5.29056 43.2452 4.89574C42.5549 4.55171 42.0239 4.48981 40.9001 4.48981C39.2108 4.48981 37.3925 5.0773 37.3147 7.51457H39.3479C39.3479 6.63262 39.9588 6.11174 40.8942 6.11174C41.8097 6.11174 42.586 6.60468 42.4073 7.41316C42.2288 8.22172 40.7359 8.25182 39.7818 8.37911C38.6755 8.52662 37.189 9.03979 36.833 10.5906C36.706 11.2006 36.8075 12.3191 37.7478 13.0561C38.3838 13.5391 39.0593 13.7428 39.9597 13.7428C41.1083 13.7428 42.0737 13.2426 42.6106 12.7513C42.6357 12.8783 42.7627 13.3612 42.8647 13.4887H44.9998C44.669 12.8276 44.7202 11.8026 44.7202 11.328Z" fill="#023047"/>
<path d="M4.37479 9.89624C3.87084 9.89624 3.46227 9.48768 3.46227 8.98382C3.46227 8.47987 3.87084 8.0713 4.37479 8.0713C4.87875 8.0713 5.28731 8.47987 5.28731 8.98382C5.28731 9.48768 4.87875 9.89624 4.37479 9.89624ZM11.454 13.9895C7.85139 12.7457 7.18497 9.41308 8.08281 7.07995C8.97934 4.74701 12.1197 3.65801 14.2988 5.22124C16.4789 6.78503 16.2476 9.78458 16.2476 9.78458H10.6592V8.18306H13.9024C13.9024 8.18306 13.9929 7.5586 13.4532 6.96471C12.7335 6.1728 11.7016 6.18192 11.0307 6.56772C10.1947 7.04853 9.62101 8.76378 10.0689 10.2719C10.5169 11.78 11.8864 12.3793 13.2039 12.3793C15.1125 12.3793 16.5327 11.06 16.5357 8.90019C16.543 5.32105 14.1294 2.05781 10.5023 1.13739C6.2209 0.0514969 1.86979 2.64182 0.783046 6.92332C-0.30285 11.2047 2.2871 15.5564 6.56878 16.6426C9.62506 17.4177 12.7165 16.3201 14.631 14.0712C13.7246 14.3389 12.6478 14.4014 11.454 13.9895Z" fill="#023047"/>
</svg>
