<svg width="31" height="21" viewBox="0 0 31 21" fill="none" xmlns="http://www.w3.org/2000/svg">
<path d="M30.7954 0.890015H0.894531V20.89H30.7954V0.890015Z" fill="#2C4390"/>
<path d="M16.163 3.73066H17.2035L16.3694 4.38301L16.6915 5.42347L15.8575 4.77938L15.0234 5.42347L15.3538 4.38301L14.5115 3.73066H15.5437L15.8575 2.71497L16.163 3.73066Z" fill="#FFED00"/>
<path d="M16.2042 17.0667H17.2447L16.4024 17.7026L16.7327 18.6935L15.8987 18.0824L15.0647 18.6935L15.395 17.7026L14.5444 17.0667H15.5849L15.8987 16.1006L16.2042 17.0667Z" fill="#FFED00"/>
<path d="M19.5072 16.1831H20.5477L19.7136 16.819L20.0357 17.8099L19.1934 17.1988L18.3594 17.8099L18.6897 16.819L17.8474 16.1831H18.8879L19.1934 15.217L19.5072 16.1831Z" fill="#FFED00"/>
<path d="M19.5072 4.62247H20.5477L19.7136 5.25005L20.0357 6.24097L19.1934 5.6299L18.3594 6.24097L18.6897 5.25005L17.8474 4.62247H18.8879L19.1934 3.64807L19.5072 4.62247Z" fill="#FFED00"/>
<path d="M21.9515 7.06673H22.992L22.158 7.69431L22.48 8.69348L21.646 8.08242L20.812 8.69348L21.1423 7.69431L20.2917 7.06673H21.3322L21.646 6.10059L21.9515 7.06673Z" fill="#FFED00"/>
<path d="M21.9515 13.7719H22.992L22.158 14.3995L22.48 15.3986L21.646 14.7793L20.812 15.3986L21.1423 14.3995L20.2917 13.7719H21.3322L21.646 12.7975L21.9515 13.7719Z" fill="#FFED00"/>
<path d="M22.8763 10.3698H23.9168L23.0745 10.9974L23.3966 11.9965L22.5625 11.3772L21.7285 11.9965L22.0588 10.9974L21.2166 10.3698H22.2488L22.5625 9.39539L22.8763 10.3698Z" fill="#FFED00"/>
<path d="M12.8021 4.63071H13.8426L13.0086 5.25829L13.3306 6.25747L12.4966 5.6464L11.6626 6.25747L11.9846 5.25829L11.1423 4.63071H12.1828L12.4966 3.65631L12.8021 4.63071Z" fill="#FFED00"/>
<path d="M10.4239 7.07497H11.4644L10.6221 7.70255L10.9524 8.70172L10.1102 8.09066L9.27613 8.70172L9.60644 7.70255L8.76416 7.07497H9.80462L10.1102 6.10883L10.4239 7.07497Z" fill="#FFED00"/>
<path d="M9.54015 10.378H10.5806L9.73833 11.0056L10.0604 12.0048L9.23462 11.3937L8.39235 12.0048L8.72265 11.0056L7.88037 10.378H8.91258L9.23462 9.40363L9.54015 10.378Z" fill="#FFED00"/>
<path d="M10.4239 13.7802H11.4644L10.6221 14.4078L10.9524 15.4069L10.1102 14.7876L9.27613 15.4069L9.60644 14.4078L8.76416 13.7802H9.80462L10.1102 12.8058L10.4239 13.7802Z" fill="#FFED00"/>
<path d="M12.8351 16.1914H13.8755L13.0415 16.819L13.3636 17.8182L12.5295 17.2071L11.6955 17.8182L12.0258 16.819L11.1753 16.1914H12.2158L12.5295 15.2253L12.8351 16.1914Z" fill="#FFED00"/>
</svg>
