<svg width="87" height="17" viewBox="0 0 87 17" fill="none" xmlns="http://www.w3.org/2000/svg">
<path d="M74.8672 11.4635C75.1499 10.461 75.5564 9.29841 75.7503 8.34739C75.9277 9.29841 76.3157 10.4775 76.5817 11.4635H74.8672ZM77.0399 5.74817H74.6363L71.1389 15.2087H73.6294L74.3 13.2037H77.1083L77.8325 15.2087H80.323L77.0399 5.74817Z" fill="#023047"/>
<path d="M68.5967 9.41613L67.3496 9.12549C66.57 8.93418 66.3815 8.74471 66.3815 8.29771C66.3815 7.78081 66.9007 7.45338 67.6267 7.45338C68.3547 7.45338 69.1676 7.67596 70.0525 8.1432L71.1426 6.53915C70.2761 5.97074 68.8387 5.58997 67.575 5.58997C65.3432 5.58997 63.8005 6.83163 63.8005 8.53869C63.8005 9.05559 63.9224 9.52098 64.183 9.96982C64.5469 10.5897 65.2028 11.0386 66.2078 11.2795L67.3866 11.5555C68.2346 11.7449 68.5967 12.0889 68.5967 12.5893C68.5967 13.2257 68.0424 13.5035 66.9524 13.5035C65.9307 13.5035 65.1511 13.2276 64.183 12.8137L63.4199 14.5704C64.5451 15.1057 65.7053 15.3449 66.8305 15.3449C69.4798 15.3449 71.2276 14.0701 71.2276 12.1055C71.2276 10.6909 70.2244 9.79507 68.5967 9.41613Z" fill="#023047"/>
<path d="M43.936 5.74812L42.6796 10.0562C42.5226 10.6026 42.3619 11.2538 42.2732 11.8332C42.166 11.2354 42.0626 10.7773 41.8852 10.1445L40.6843 5.74628H37.6987L36.6733 15.1921H39.0585L39.3412 10.5842C39.3744 10.0029 39.428 9.22846 39.4483 8.57911C39.5887 9.33515 39.7809 10.1629 39.9065 10.5842L41.1979 15.1921H43.2099L44.6251 10.426C44.7655 9.93299 44.978 9.31675 45.0999 8.77226C45.135 9.42344 45.172 9.98633 45.2071 10.4793L45.5248 15.194H47.8379L46.868 5.74812H43.936Z" fill="#023047"/>
<path d="M33.2999 11.7118C33.2999 12.696 33.1595 12.9425 32.9655 13.1191C32.7161 13.3306 32.3299 13.5054 31.8533 13.5054C31.3046 13.5054 30.8612 13.3288 30.6173 12.9958C30.4399 12.7659 30.4196 12.4679 30.4196 11.905V5.74817H28.0178V12.168C28.0178 13.0492 28.1231 13.647 28.5296 14.1731C29.1504 14.9641 30.3679 15.3688 31.942 15.3688C33.4255 15.3688 34.3955 14.8942 34.9091 14.4012C35.4393 13.8916 35.7035 13.4171 35.7035 12.0282V5.74817H33.2999V11.7118Z" fill="#023047"/>
<path d="M79.2996 5.74817V7.61159H81.7549V15.2198H84.1752V7.61343H86.0467C86.6121 7.24552 86.9982 5.75001 86.9982 5.75001H79.2996V5.74817Z" fill="#023047"/>
<path d="M23.0922 11.1967H25.8506V9.3462H23.0737V7.5858H25.845C26.2663 7.26389 26.5822 6.34229 26.7004 5.94312L26.7337 5.75549H20.7034V15.2105H26.839V13.2901H23.0904V11.1967H23.0922Z" fill="#023047"/>
<path d="M51.302 11.1967H54.0604V9.3462H51.2836V7.5858H54.0549C54.4742 7.26389 54.792 6.34229 54.9103 5.94312L54.9435 5.75549H48.915V15.2105H55.0507V13.2901H51.302V11.1967Z" fill="#023047"/>
<path d="M55.895 5.74817V7.61159H58.3504V15.1922H60.7706V7.61343H62.644C63.2094 7.24552 63.5955 5.75001 63.5955 5.75001H55.895V5.74817Z" fill="#023047"/>
<path d="M12.3858 7.27125H15.9054C15.7963 6.74331 15.6338 6.23377 15.4268 5.74998H13.2523C13.7715 4.53775 13.7825 3.42117 12.9419 2.55844C11.5858 1.51361 9.88426 0.890015 8.03489 0.890015C3.59713 0.890015 0 4.47153 0 8.89001C0 13.3085 3.59713 16.89 8.03489 16.89C9.87872 16.89 11.5748 16.2701 12.9308 15.2308H3.65441C3.90937 15.056 5.96936 13.6286 8.15129 11.7376H15.5451C15.7317 11.2519 15.8702 10.7424 15.9589 10.2163H9.81221C10.7877 9.26711 11.7004 8.25906 12.3858 7.27125Z" fill="#023047"/>
</svg>
